<svg version="1.1" id="Layer_1" xmlns="http://www.w3.org/2000/svg" xmlns:xlink="http://www.w3.org/1999/xlink" x="0px" y="0px"
	 width="100%" viewBox="0 0 338 190" enable-background="new 0 0 338 190" xml:space="preserve">
<path fill="#010203" opacity="1.000000" stroke="none" 
	d="
M231.000000,191.000000 
	C154.000015,191.000000 77.500015,191.000000 1.000021,191.000000 
	C1.000014,127.666687 1.000014,64.333366 1.000007,1.000038 
	C113.666634,1.000025 226.333267,1.000025 338.999939,1.000013 
	C338.999939,64.333298 338.999939,127.666595 338.999969,190.999939 
	C303.166656,191.000000 267.333344,191.000000 231.000000,191.000000 
M218.769196,115.122017 
	C219.108078,114.396194 219.446976,113.670372 220.219208,112.550438 
	C220.467194,112.030922 220.715164,111.511406 221.542725,110.642159 
	C223.169785,108.308632 224.796860,105.975105 227.004669,102.808685 
	C227.902756,105.837379 228.492233,107.715477 229.016937,109.611504 
	C235.189301,131.915131 241.434906,154.199203 247.432480,176.549805 
	C248.390656,180.120483 249.915848,181.439850 253.594086,181.236908 
	C259.736206,180.898026 265.903229,181.010010 272.788818,181.253448 
	C286.841888,181.110046 300.894928,180.966660 315.730499,180.984802 
	C316.999054,180.887939 318.267578,180.791077 320.152679,180.647125 
	C318.254089,174.066620 316.482269,167.925568 314.714600,160.966858 
	C314.339844,159.519455 313.984924,158.066589 313.587433,156.625443 
	C303.383118,119.627266 293.248138,82.609573 282.863800,45.661983 
	C281.695831,41.506405 282.510010,39.367115 286.167023,37.262466 
	C291.620148,34.124149 296.738159,30.403540 302.639954,26.811422 
	C303.303162,26.263710 303.966400,25.715998 305.262054,25.059776 
	C307.840942,23.347431 310.419830,21.635086 313.637573,19.801407 
	C314.300446,19.256557 314.963348,18.711706 316.258362,18.055300 
	C318.837250,16.339170 321.416138,14.623043 324.681824,12.749290 
	C325.472473,12.109975 326.263123,11.470660 327.894073,10.151872 
	C325.903839,10.035996 324.951233,9.980532 323.084045,9.697651 
	C296.035767,9.741839 268.987488,9.786028 241.130600,9.606238 
	C227.852036,9.515809 214.573486,9.365118 201.294907,9.361830 
	C195.180908,9.360315 189.066849,9.647439 182.204300,9.662919 
	C181.467331,9.787482 180.730362,9.912045 179.085907,9.784856 
	C171.056076,9.872255 163.026230,9.959655 154.096085,9.765544 
	C143.995697,9.730220 133.894363,9.617281 123.795860,9.739227 
	C122.192383,9.758591 119.853867,10.355288 119.120888,11.497375 
	C111.877159,22.784262 104.900574,34.242596 97.252739,46.018036 
	C90.689240,56.611599 84.125740,67.205162 77.031013,78.181129 
	C71.632599,86.851395 66.206940,95.504852 60.844711,104.197441 
	C56.828293,110.708389 52.893578,117.269730 48.259926,124.065628 
	C41.247234,135.285995 34.234547,146.506348 26.711851,158.089401 
	C22.069044,165.423538 17.426237,172.757690 12.337447,180.796341 
	C26.677094,180.796341 39.846069,180.796341 53.922955,181.037384 
	C62.549644,181.067276 71.177643,181.182892 79.801872,181.051422 
	C81.436302,181.026505 83.814819,180.520523 84.559647,179.387924 
	C89.594475,171.731949 94.282196,163.847702 99.638397,155.659149 
	C110.591003,138.179428 121.543617,120.699699 132.496216,103.219971 
	C132.992432,103.441780 133.488632,103.663589 133.984833,103.885399 
	C135.854904,110.607452 137.873428,117.294342 139.480530,124.078690 
	C139.838867,125.591400 139.143860,127.689438 138.268173,129.106720 
	C129.544266,143.226074 120.666618,157.250320 111.868080,171.323761 
	C110.033295,174.258545 108.345161,177.284988 106.279305,180.796341 
	C124.479996,180.796341 141.739944,180.796341 159.903351,181.060226 
	C164.392334,181.087952 168.900558,181.366089 173.361099,181.023483 
	C175.215576,180.881058 177.745987,179.904327 178.647583,178.473999 
	C188.179367,163.352768 197.444290,148.063324 207.224258,132.292679 
	C210.890396,126.665054 214.556549,121.037437 218.769196,115.122017 
z"/>
<path fill="#145FD4" opacity="1.000000" stroke="none" 
	d="
M323.995026,12.906914 
	C321.416138,14.623043 318.837250,16.339170 315.588684,18.126858 
	C314.278931,18.773191 313.638824,19.347965 312.998718,19.922741 
	C310.419830,21.635086 307.840942,23.347431 304.591370,25.129662 
	C303.280029,25.776596 302.639374,26.353643 301.998749,26.930687 
	C296.738159,30.403540 291.620148,34.124149 286.167023,37.262466 
	C282.510010,39.367115 281.695831,41.506405 282.863800,45.661983 
	C293.248138,82.609573 303.383118,119.627266 313.587433,156.625443 
	C313.984924,158.066589 314.339844,159.519455 314.143890,161.424133 
	C312.440643,161.990265 311.308075,162.099121 309.962280,161.940491 
	C298.773895,122.051659 287.816956,82.425278 276.781464,42.820774 
	C276.068420,40.261745 276.125366,38.510036 278.651184,36.939987 
	C289.673401,30.088614 300.597412,23.079336 311.831604,16.070518 
	C312.526581,15.457899 312.947052,14.902146 313.367523,14.346395 
	C312.566101,14.251857 311.764679,14.157317 310.503723,14.151024 
	C287.339569,14.197128 264.634979,14.154987 241.931580,13.684901 
	C241.934906,12.114709 241.937073,10.972464 241.939224,9.830217 
	C268.987488,9.786028 296.035767,9.741839 323.540955,10.184231 
	C323.996948,11.416179 323.996002,12.161546 323.995026,12.906914 
z"/>
<path fill="#6B9AE6" opacity="1.000000" stroke="none" 
	d="
M158.999893,180.796341 
	C141.739944,180.796341 124.479996,180.796341 106.279305,180.796341 
	C108.345161,177.284988 110.033295,174.258545 111.868080,171.323761 
	C120.666618,157.250320 129.544266,143.226074 138.268173,129.106720 
	C139.143860,127.689438 139.838867,125.591400 139.480530,124.078690 
	C137.873428,117.294342 135.854904,110.607452 133.984833,103.885399 
	C133.488632,103.663589 132.992432,103.441780 132.496216,103.219971 
	C121.543617,120.699699 110.591003,138.179428 98.996498,155.685303 
	C97.343086,155.396072 96.331573,155.080719 95.421341,154.414551 
	C108.607216,133.220886 121.691826,112.377998 134.776428,91.535118 
	C139.033936,102.785156 142.092834,113.493271 144.835770,124.281715 
	C145.211456,125.759369 144.381332,127.868820 143.483917,129.291031 
	C138.458069,137.255798 133.163223,145.050446 128.110428,152.998657 
	C123.470688,160.297119 119.021118,167.716476 113.598145,176.528076 
	C129.886230,176.528076 144.442947,176.528076 158.999542,176.883682 
	C158.999573,178.424973 158.999725,179.610657 158.999893,180.796341 
z"/>
<path fill="#4C82DA" opacity="1.000000" stroke="none" 
	d="
M272.059753,180.932190 
	C265.903229,181.010010 259.736206,180.898026 253.594086,181.236908 
	C249.915848,181.439850 248.390656,180.120483 247.432480,176.549805 
	C241.434906,154.199203 235.189301,131.915131 229.016937,109.611504 
	C228.492233,107.715477 227.902756,105.837379 227.004669,102.808685 
	C224.796860,105.975105 223.169785,108.308632 221.039398,110.584366 
	C219.694290,109.689636 218.852493,108.852684 218.047623,107.669563 
	C221.500183,102.117828 224.915802,96.912262 228.961884,90.745857 
	C229.890671,93.724274 230.521011,95.564178 231.039276,97.435135 
	C237.703094,121.491806 244.554718,145.499802 250.848251,169.653152 
	C252.281586,175.154022 254.691544,176.834457 260.041870,176.414154 
	C264.643860,176.052643 269.318146,176.611099 273.970581,177.087952 
	C274.000427,178.282486 274.020172,179.151840 273.761597,180.068359 
	C273.008789,180.387756 272.534271,180.659973 272.059753,180.932190 
z"/>
<path fill="#709BE2" opacity="1.000000" stroke="none" 
	d="
M159.451630,180.928284 
	C158.999725,179.610657 158.999573,178.424973 159.461212,176.812256 
	C163.079941,176.365524 166.258926,176.103088 169.388229,176.387436 
	C173.330109,176.745605 175.750839,175.394226 177.801376,171.870529 
	C182.645813,163.545715 187.893539,155.450943 193.119202,147.354156 
	C196.937393,141.438110 200.980057,135.666931 205.118927,130.224487 
	C205.804398,131.351944 206.293579,132.086090 206.782776,132.820251 
	C197.444290,148.063324 188.179367,163.352768 178.647583,178.473999 
	C177.745987,179.904327 175.215576,180.881058 173.361099,181.023483 
	C168.900558,181.366089 164.392334,181.087952 159.451630,180.928284 
z"/>
<path fill="#79A8F4" opacity="1.000000" stroke="none" 
	d="
M97.848312,45.652367 
	C104.900574,34.242596 111.877159,22.784262 119.120888,11.497375 
	C119.853867,10.355288 122.192383,9.758591 123.795860,9.739227 
	C133.894363,9.617281 143.995697,9.730220 154.540649,10.293517 
	C154.988693,11.854181 154.992172,12.886873 154.541107,14.042055 
	C145.471329,14.198820 136.840118,14.561632 128.246918,14.143255 
	C123.151321,13.895165 120.467339,16.193569 118.079880,20.147263 
	C112.218727,29.853497 106.130249,39.422455 99.832428,48.858212 
	C98.970528,47.663982 98.409424,46.658173 97.848312,45.652367 
z"/>
<path fill="#5289E0" opacity="1.000000" stroke="none" 
	d="
M53.015045,180.796341 
	C39.846069,180.796341 26.677094,180.796341 12.337447,180.796341 
	C17.426237,172.757690 22.069044,165.423538 27.361067,157.997177 
	C29.016006,158.271179 30.021730,158.637390 30.964790,159.347443 
	C27.733259,164.836807 24.564390,169.982330 20.535154,176.524902 
	C32.337955,176.524902 42.675816,176.524902 53.017822,176.880829 
	C53.019657,178.423279 53.017349,179.609818 53.015045,180.796341 
z"/>
<path fill="#5F92E4" opacity="1.000000" stroke="none" 
	d="
M53.468998,180.916870 
	C53.017349,179.609818 53.019657,178.423279 53.481613,176.821579 
	C61.903320,176.385544 69.873886,176.555252 77.821075,176.200912 
	C79.654961,176.119156 81.987602,174.659744 83.097137,173.118851 
	C87.389328,167.157913 91.279892,160.907761 95.320061,154.765350 
	C96.331573,155.080719 97.343086,155.396072 98.718399,155.874374 
	C94.282196,163.847702 89.594475,171.731949 84.559647,179.387924 
	C83.814819,180.520523 81.436302,181.026505 79.801872,181.051422 
	C71.177643,181.182892 62.549644,181.067276 53.468998,180.916870 
z"/>
<path fill="#3367BB" opacity="1.000000" stroke="none" 
	d="
M241.534912,9.718227 
	C241.937073,10.972464 241.934906,12.114709 241.531952,13.784673 
	C226.077591,14.246212 211.024002,14.180034 196.305847,13.868788 
	C203.768021,13.305407 210.894775,12.987093 218.021545,12.668779 
	C218.016815,12.078913 218.012100,11.489046 218.007370,10.899179 
	C208.011658,10.899179 198.015945,10.899179 187.631134,10.887242 
	C185.812286,10.518098 184.382553,10.160891 182.952820,9.803684 
	C189.066849,9.647439 195.180908,9.360315 201.294907,9.361830 
	C214.573486,9.365118 227.852036,9.515809 241.534912,9.718227 
z"/>
<path fill="#6397EA" opacity="1.000000" stroke="none" 
	d="
M48.922489,123.808640 
	C52.893578,117.269730 56.828293,110.708389 60.844711,104.197441 
	C66.206940,95.504852 71.632599,86.851395 77.614159,78.219742 
	C79.008270,78.911987 79.819237,79.565620 80.531891,80.569244 
	C78.320892,84.059608 76.144882,87.159492 74.106812,90.347557 
	C66.491455,102.259918 58.921284,114.201164 50.989204,126.028984 
	C50.070328,125.220482 49.496407,124.514557 48.922489,123.808640 
z"/>
<path fill="#5A90E5" opacity="1.000000" stroke="none" 
	d="
M48.591209,123.937134 
	C49.496407,124.514557 50.070328,125.220482 50.854820,126.354248 
	C44.386078,137.522614 37.706764,148.263107 31.027454,159.003616 
	C30.021730,158.637390 29.016006,158.271179 27.616068,157.815826 
	C34.234547,146.506348 41.247234,135.285995 48.591209,123.937134 
z"/>
<path fill="#6999E5" opacity="1.000000" stroke="none" 
	d="
M80.630203,80.219246 
	C79.819237,79.565620 79.008270,78.911987 77.879776,78.028542 
	C84.125740,67.205162 90.689240,56.611599 97.550522,45.835201 
	C98.409424,46.658173 98.970528,47.663982 99.779068,49.205296 
	C93.561066,59.900284 87.095634,70.059769 80.630203,80.219246 
z"/>
<path fill="#2672EA" opacity="1.000000" stroke="none" 
	d="
M310.175537,162.207977 
	C311.308075,162.099121 312.440643,161.990265 314.141815,161.832962 
	C316.482269,167.925568 318.254089,174.066620 320.152679,180.647125 
	C318.267578,180.791077 316.999054,180.887939 315.001373,180.674530 
	C308.517303,180.214935 302.762329,180.065598 297.006714,179.586945 
	C297.009705,178.816925 297.013397,178.376221 297.482788,177.933258 
	C302.059753,177.937149 306.177002,178.064301 310.278168,177.863434 
	C311.290070,177.813858 312.249756,176.697296 313.239136,175.654022 
	C312.221710,170.893845 311.198608,166.550903 310.175537,162.207977 
z"/>
<path fill="#699EF2" opacity="1.000000" stroke="none" 
	d="
M154.995636,13.919565 
	C154.992172,12.886873 154.988693,11.854181 154.990814,10.434273 
	C163.026230,9.959655 171.056076,9.872255 179.529312,10.300224 
	C179.978394,11.854496 179.984085,12.893399 179.532486,14.039867 
	C171.048676,14.071476 163.022156,13.995521 154.995636,13.919565 
z"/>
<path fill="#669BF0" opacity="1.000000" stroke="none" 
	d="
M207.003510,132.556458 
	C206.293579,132.086090 205.804398,131.351944 205.119537,129.864456 
	C209.286148,122.079330 213.648422,115.047531 218.010696,108.015732 
	C218.852493,108.852684 219.694290,109.689636 220.749603,110.759232 
	C220.715164,111.511406 220.467194,112.030922 219.693451,112.851730 
	C218.852676,113.905281 218.537689,114.657547 218.222702,115.409821 
	C214.556549,121.037437 210.890396,126.665054 207.003510,132.556458 
z"/>
<path fill="#1F5DBF" opacity="1.000000" stroke="none" 
	d="
M297.007385,179.916260 
	C302.762329,180.065598 308.517303,180.214935 314.610107,180.593781 
	C300.894928,180.966660 286.841888,181.110046 272.424286,181.092819 
	C272.534271,180.659973 273.008789,180.387756 274.225586,180.078522 
	C282.314362,179.999741 289.660858,179.957993 297.007385,179.916260 
z"/>
<path fill="#5F8FDD" opacity="1.000000" stroke="none" 
	d="
M179.989777,13.932303 
	C179.984085,12.893399 179.978394,11.854496 179.983063,10.426100 
	C180.730362,9.912045 181.467331,9.787482 182.578552,9.733301 
	C184.382553,10.160891 185.812286,10.518098 187.622162,11.275076 
	C187.990463,12.445738 187.978622,13.216628 187.534653,14.099907 
	C184.731613,14.118964 182.360687,14.025634 179.989777,13.932303 
z"/>
<path fill="#105BD3" opacity="1.000000" stroke="none" 
	d="
M324.338440,12.828102 
	C323.996002,12.161546 323.996948,11.416179 323.998230,10.297939 
	C324.951233,9.980532 325.903839,10.035996 327.894073,10.151872 
	C326.263123,11.470660 325.472473,12.109975 324.338440,12.828102 
z"/>
<path fill="#105BD3" opacity="1.000000" stroke="none" 
	d="
M302.319336,26.871056 
	C302.639374,26.353643 303.280029,25.776596 304.275146,25.183916 
	C303.966400,25.715998 303.303162,26.263710 302.319336,26.871056 
z"/>
<path fill="#105BD3" opacity="1.000000" stroke="none" 
	d="
M313.318146,19.862074 
	C313.638824,19.347965 314.278931,18.773191 315.272644,18.182636 
	C314.963348,18.711706 314.300446,19.256557 313.318146,19.862074 
z"/>
<path fill="#507FCA" opacity="1.000000" stroke="none" 
	d="
M218.495941,115.265915 
	C218.537689,114.657547 218.852676,113.905281 219.476776,113.048782 
	C219.446976,113.670372 219.108078,114.396194 218.495941,115.265915 
z"/>
<path fill="#090B0F" opacity="1.000000" stroke="none" 
	d="
M179.532486,14.039867 
	C182.360687,14.025634 184.731613,14.118964 187.968658,14.216534 
	C191.213333,14.185134 193.591888,14.149494 195.970428,14.113854 
	C211.024002,14.180034 226.077591,14.246212 241.530777,14.212619 
	C264.634979,14.154987 287.339569,14.197128 310.674500,14.473101 
	C311.388947,15.180416 311.473022,15.653900 311.557098,16.127384 
	C300.597412,23.079336 289.673401,30.088614 278.651184,36.939987 
	C276.125366,38.510036 276.068420,40.261745 276.781464,42.820774 
	C287.816956,82.425278 298.773895,122.051659 309.962250,161.940475 
	C311.198608,166.550903 312.221710,170.893845 312.756195,175.694397 
	C305.140594,176.317642 298.013580,176.483292 290.436096,176.556030 
	C284.643890,176.563019 279.302155,176.662903 273.960449,176.762772 
	C269.318146,176.611099 264.643860,176.052643 260.041870,176.414154 
	C254.691544,176.834457 252.281586,175.154022 250.848251,169.653152 
	C244.554718,145.499802 237.703094,121.491806 231.039276,97.435135 
	C230.521011,95.564178 229.890671,93.724274 228.961884,90.745857 
	C224.915802,96.912262 221.500183,102.117828 218.047623,107.669563 
	C213.648422,115.047531 209.286148,122.079330 204.923279,129.471161 
	C200.980057,135.666931 196.937393,141.438110 193.119202,147.354156 
	C187.893539,155.450943 182.645813,163.545715 177.801376,171.870529 
	C175.750839,175.394226 173.330109,176.745605 169.388229,176.387436 
	C166.258926,176.103088 163.079941,176.365524 159.461334,176.456635 
	C144.442947,176.528076 129.886230,176.528076 113.598145,176.528076 
	C119.021118,167.716476 123.470688,160.297119 128.110428,152.998657 
	C133.163223,145.050446 138.458069,137.255798 143.483917,129.291031 
	C144.381332,127.868820 145.211456,125.759369 144.835770,124.281715 
	C142.092834,113.493271 139.033936,102.785156 134.776428,91.535118 
	C121.691826,112.377998 108.607216,133.220886 95.421341,154.414551 
	C91.279892,160.907761 87.389328,167.157913 83.097137,173.118851 
	C81.987602,174.659744 79.654961,176.119156 77.821075,176.200912 
	C69.873886,176.555252 61.903320,176.385544 53.477467,176.465652 
	C42.675816,176.524902 32.337955,176.524902 20.535154,176.524902 
	C24.564390,169.982330 27.733259,164.836807 30.964790,159.347443 
	C37.706764,148.263107 44.386078,137.522614 51.199776,126.456833 
	C58.921284,114.201164 66.491455,102.259918 74.106812,90.347557 
	C76.144882,87.159492 78.320892,84.059608 80.531891,80.569244 
	C87.095634,70.059769 93.561066,59.900284 100.079849,49.393719 
	C106.130249,39.422455 112.218727,29.853497 118.079880,20.147263 
	C120.467339,16.193569 123.151321,13.895165 128.246918,14.143255 
	C136.840118,14.561632 145.471329,14.198820 154.541107,14.042056 
	C163.022156,13.995521 171.048676,14.071476 179.532486,14.039867 
M194.289825,32.097469 
	C191.082947,34.125401 187.822693,36.076183 184.705154,38.233234 
	C183.883057,38.802059 182.847198,40.164146 183.022018,40.896393 
	C184.367676,46.533401 185.987366,52.105000 187.830338,58.820255 
	C192.139862,51.799774 195.642700,46.093449 199.717102,39.962883 
	C202.638138,34.900803 205.559158,29.838718 208.480194,24.776636 
	C208.146652,24.461285 207.813110,24.145931 207.479568,23.830580 
	C203.308990,26.534294 199.138428,29.238008 194.289825,32.097469 
M139.933899,71.624962 
	C144.103760,86.711037 148.273636,101.797104 152.833755,118.295059 
	C158.119354,109.760818 162.618561,102.496300 167.754349,94.953308 
	C171.560135,89.088402 175.149200,83.066147 179.251419,77.416481 
	C181.788773,73.921944 181.992462,70.725365 180.705704,66.761192 
	C178.652908,60.437050 177.121429,53.944107 175.354019,47.526814 
	C172.350525,36.621433 172.350052,36.630104 181.771027,30.649958 
	C185.124222,28.521452 188.449005,26.348179 191.786758,24.195337 
	C191.565155,23.803024 191.343552,23.410711 191.121964,23.018398 
	C189.494781,23.113024 187.867599,23.207651 185.261963,23.154066 
	C166.930954,23.144428 148.598618,23.032959 130.270844,23.271391 
	C128.281235,23.297274 125.525215,24.843596 124.458054,26.528952 
	C95.577248,72.140022 66.868164,117.859848 38.148853,163.573105 
	C37.429070,164.718811 36.919811,165.996780 36.191959,167.454163 
	C43.153454,167.454163 49.433277,167.454163 56.640003,167.768845 
	C61.966118,167.791824 67.305672,167.593018 72.613686,167.914658 
	C76.237259,168.134232 78.279846,166.828369 80.193298,163.755814 
	C98.757950,133.945297 117.473694,104.228798 136.208588,74.524742 
	C137.107971,73.098770 138.589203,72.039772 139.933899,71.624962 
M149.771927,167.791138 
	C155.253616,167.805923 160.750534,167.577896 166.211670,167.920410 
	C169.883469,168.150726 171.819214,166.702393 173.698639,163.685501 
	C192.142395,134.079422 210.731613,104.563927 229.321747,75.049309 
	C230.357437,73.405014 231.764725,71.994781 233.233704,71.253502 
	C234.539505,75.899261 235.863342,80.540031 237.148087,85.191605 
	C244.369598,111.338287 251.632812,137.473709 258.728394,163.654556 
	C259.558167,166.716248 260.702301,168.158554 264.075867,167.922195 
	C269.041382,167.574310 274.038177,167.672287 279.927765,167.820068 
	C287.006439,167.820068 294.085083,167.820068 301.742920,167.820068 
	C301.163513,165.442444 300.821106,163.864838 300.394135,162.310471 
	C289.256287,121.763847 278.176697,81.200912 266.856476,40.705246 
	C265.777069,36.843956 266.600739,34.988819 269.901459,33.151340 
	C274.713989,30.472212 279.272369,27.336441 283.939087,24.395350 
	C283.764252,23.965807 283.589417,23.536264 283.414612,23.106722 
	C282.016235,23.174934 280.617889,23.243145 278.245911,23.158875 
	C260.448639,23.147318 242.650208,23.239645 224.855118,23.037273 
	C221.260666,22.996395 219.209351,24.091656 217.289795,27.159472 
	C188.971909,72.416885 160.520844,117.590958 132.107819,162.788864 
	C131.265060,164.129456 130.492447,165.514160 129.308609,167.519470 
	C136.397781,167.519470 142.624557,167.519470 149.771927,167.791138 
z"/>
<path fill="#105BD3" opacity="1.000000" stroke="none" 
	d="
M311.831604,16.070518 
	C311.473022,15.653900 311.388947,15.180416 311.134064,14.384855 
	C311.764679,14.157317 312.566101,14.251857 313.367523,14.346395 
	C312.947052,14.902146 312.526581,15.457899 311.831604,16.070518 
z"/>
<path fill="#3A7CE5" opacity="1.000000" stroke="none" 
	d="
M273.970581,177.087952 
	C279.302155,176.662903 284.643890,176.563019 290.648560,176.822937 
	C293.213348,177.433655 295.115234,177.684586 297.017090,177.935516 
	C297.013397,178.376221 297.009705,178.816925 297.006714,179.586945 
	C289.660858,179.957993 282.314362,179.999741 274.503876,180.031342 
	C274.020172,179.151840 274.000427,178.282486 273.970581,177.087952 
z"/>
<path fill="#4B86E5" opacity="1.000000" stroke="none" 
	d="
M196.305847,13.868788 
	C193.591888,14.149494 191.213333,14.185134 188.400787,14.104146 
	C187.978622,13.216628 187.990463,12.445738 188.011261,11.287014 
	C198.015945,10.899179 208.011658,10.899179 218.007370,10.899179 
	C218.012100,11.489046 218.016815,12.078913 218.021545,12.668779 
	C210.894775,12.987093 203.768021,13.305407 196.305847,13.868788 
z"/>
<path fill="#1F5DBF" opacity="1.000000" stroke="none" 
	d="
M297.482788,177.933258 
	C295.115234,177.684586 293.213348,177.433655 291.099060,176.915817 
	C298.013580,176.483292 305.140594,176.317642 312.750488,176.111618 
	C312.249756,176.697296 311.290070,177.813858 310.278168,177.863434 
	C306.177002,178.064301 302.059753,177.937149 297.482788,177.933258 
z"/>
<path fill="#A0C1F4" opacity="1.000000" stroke="none" 
	d="
M279.219543,23.311356 
	C280.617889,23.243145 282.016235,23.174934 283.414612,23.106722 
	C283.589417,23.536264 283.764252,23.965807 283.939087,24.395350 
	C279.272369,27.336441 274.713989,30.472212 269.901459,33.151340 
	C266.600739,34.988819 265.777069,36.843956 266.856476,40.705246 
	C278.176697,81.200912 289.256287,121.763847 300.394135,162.310471 
	C300.821106,163.864838 301.163513,165.442444 301.742920,167.820068 
	C294.085083,167.820068 287.006439,167.820068 279.417664,167.328918 
	C278.872711,166.340378 278.923737,165.818665 278.790771,165.349045 
	C268.266632,128.179474 257.733093,91.012558 247.162170,53.856274 
	C246.887314,52.890118 246.191452,52.043728 245.095200,50.063713 
	C240.715164,57.454899 236.857101,63.965252 232.999054,70.475616 
	C231.764725,71.994781 230.357437,73.405014 229.321747,75.049309 
	C210.731613,104.563927 192.142395,134.079422 173.698639,163.685501 
	C171.819214,166.702393 169.883469,168.150726 166.211670,167.920410 
	C160.750534,167.577896 155.253616,167.805923 149.376495,167.329987 
	C176.207672,124.086952 203.394653,81.279633 230.781158,38.600338 
	C232.111923,36.526459 235.011276,34.846855 237.491348,34.225384 
	C250.386368,30.994076 263.388672,28.192581 276.331329,25.146694 
	C277.379974,24.899906 278.260742,23.939926 279.219543,23.311356 
z"/>
<path fill="#A0C0F3" opacity="1.000000" stroke="none" 
	d="
M186.240417,23.302279 
	C187.867599,23.207651 189.494781,23.113024 191.121964,23.018398 
	C191.343552,23.410711 191.565155,23.803024 191.786758,24.195337 
	C188.449005,26.348179 185.124222,28.521452 181.771027,30.649958 
	C172.350052,36.630104 172.350525,36.621433 175.354019,47.526814 
	C177.121429,53.944107 178.652908,60.437050 180.705704,66.761192 
	C181.992462,70.725365 181.788773,73.921944 179.251419,77.416481 
	C175.149200,83.066147 171.560135,89.088402 167.134476,94.865814 
	C165.773285,92.935669 164.883575,91.137527 164.315094,89.243004 
	C160.965485,78.080261 157.716141,66.887413 154.361557,55.726185 
	C153.888336,54.151691 153.024200,52.694683 152.340988,51.183300 
	C151.791595,51.123795 151.242203,51.064293 150.692810,51.004787 
	C147.061707,57.606483 143.430588,64.208183 139.799469,70.809875 
	C138.589203,72.039772 137.107971,73.098770 136.208588,74.524742 
	C117.473694,104.228798 98.757950,133.945297 80.193298,163.755814 
	C78.279846,166.828369 76.237259,168.134232 72.613686,167.914658 
	C67.305672,167.593018 61.966118,167.791824 56.214703,167.272614 
	C56.265579,165.903381 56.692276,164.998901 57.225021,164.161911 
	C83.465408,122.935699 109.768097,81.748917 135.875610,40.438766 
	C138.306305,36.592628 141.042999,34.597332 145.518387,33.724323 
	C157.906845,31.307709 170.201584,28.402700 182.502777,25.558371 
	C183.850494,25.246744 184.999344,24.075058 186.240417,23.302279 
z"/>
<path fill="#FAFBFB" opacity="1.000000" stroke="none" 
	d="
M185.751190,23.228172 
	C184.999344,24.075058 183.850494,25.246744 182.502777,25.558371 
	C170.201584,28.402700 157.906845,31.307709 145.518387,33.724323 
	C141.042999,34.597332 138.306305,36.592628 135.875610,40.438766 
	C109.768097,81.748917 83.465408,122.935699 57.225021,164.161911 
	C56.692276,164.998901 56.265579,165.903381 55.751251,167.115265 
	C49.433277,167.454163 43.153454,167.454163 36.191959,167.454163 
	C36.919811,165.996780 37.429070,164.718811 38.148853,163.573105 
	C66.868164,117.859848 95.577248,72.140022 124.458054,26.528952 
	C125.525215,24.843596 128.281235,23.297274 130.270844,23.271391 
	C148.598618,23.032959 166.930954,23.144428 185.751190,23.228172 
z"/>
<path fill="#FAFAFB" opacity="1.000000" stroke="none" 
	d="
M278.732727,23.235115 
	C278.260742,23.939926 277.379974,24.899906 276.331329,25.146694 
	C263.388672,28.192581 250.386368,30.994076 237.491348,34.225384 
	C235.011276,34.846855 232.111923,36.526459 230.781158,38.600338 
	C203.394653,81.279633 176.207672,124.086952 148.916199,167.194153 
	C142.624557,167.519470 136.397781,167.519470 129.308609,167.519470 
	C130.492447,165.514160 131.265060,164.129456 132.107819,162.788864 
	C160.520844,117.590958 188.971909,72.416885 217.289795,27.159472 
	C219.209351,24.091656 221.260666,22.996395 224.855118,23.037273 
	C242.650208,23.239645 260.448639,23.147318 278.732727,23.235115 
z"/>
<path fill="#FAFBFC" opacity="1.000000" stroke="none" 
	d="
M233.116379,70.864555 
	C236.857101,63.965252 240.715164,57.454899 245.095200,50.063713 
	C246.191452,52.043728 246.887314,52.890118 247.162170,53.856274 
	C257.733093,91.012558 268.266632,128.179474 278.790771,165.349045 
	C278.923737,165.818665 278.872711,166.340378 278.964600,167.209061 
	C274.038177,167.672287 269.041382,167.574310 264.075867,167.922195 
	C260.702301,168.158554 259.558167,166.716248 258.728394,163.654556 
	C251.632812,137.473709 244.369598,111.338287 237.148087,85.191605 
	C235.863342,80.540031 234.539505,75.899261 233.116379,70.864555 
z"/>
<path fill="#F8F9FA" opacity="1.000000" stroke="none" 
	d="
M139.866684,71.217422 
	C143.430588,64.208183 147.061707,57.606483 150.692810,51.004787 
	C151.242203,51.064293 151.791595,51.123795 152.340988,51.183300 
	C153.024200,52.694683 153.888336,54.151691 154.361557,55.726185 
	C157.716141,66.887413 160.965485,78.080261 164.315094,89.243004 
	C164.883575,91.137527 165.773285,92.935669 166.816193,95.005051 
	C162.618561,102.496300 158.119354,109.760818 152.833755,118.295059 
	C148.273636,101.797104 144.103760,86.711037 139.866684,71.217422 
z"/>
<path fill="#598EE2" opacity="1.000000" stroke="none" 
	d="
M199.145523,40.387123 
	C195.642700,46.093449 192.139862,51.799774 187.830338,58.820255 
	C185.987366,52.105000 184.367676,46.533401 183.022018,40.896393 
	C182.847198,40.164146 183.883057,38.802059 184.705154,38.233234 
	C187.822693,36.076183 191.082947,34.125401 194.772049,32.335083 
	C195.507812,33.687141 195.761353,34.801586 195.714096,36.103565 
	C187.393936,40.762753 187.393936,40.762753 190.167816,46.867287 
	C192.248489,43.830433 194.236511,40.928806 196.573318,38.057529 
	C197.663239,38.854298 198.404373,39.620708 199.145523,40.387123 
z"/>
<path fill="#4C83DD" opacity="1.000000" stroke="none" 
	d="
M199.431305,40.175003 
	C198.404373,39.620708 197.663239,38.854298 196.545685,37.704788 
	C196.117813,36.853142 196.066360,36.384586 196.014893,35.916031 
	C195.761353,34.801586 195.507812,33.687141 195.111053,32.257210 
	C199.138428,29.238008 203.308990,26.534294 207.479568,23.830580 
	C207.813110,24.145931 208.146652,24.461285 208.480194,24.776636 
	C205.559158,29.838718 202.638138,34.900803 199.431305,40.175003 
z"/>
<path fill="#16243B" opacity="1.000000" stroke="none" 
	d="
M195.714096,36.103565 
	C196.066360,36.384586 196.117813,36.853142 196.196899,37.674438 
	C194.236511,40.928806 192.248489,43.830433 190.167816,46.867287 
	C187.393936,40.762753 187.393936,40.762753 195.714096,36.103565 
z"/>
</svg>